<?xml version="1.0" standalone="no"?>
<!DOCTYPE svg PUBLIC "-//W3C//DTD SVG 20010904//EN"
 "http://www.w3.org/TR/2001/REC-SVG-20010904/DTD/svg10.dtd">
<svg version="1.0" xmlns="http://www.w3.org/2000/svg"
 width="500.000000pt" height="500.000000pt" viewBox="0 0 500.000000 500.000000"
 preserveAspectRatio="xMidYMid meet">
<metadata>
Created by potrace 1.14, written by Peter Selinger 2001-2017
</metadata>
<g transform="translate(0.000000,500.000000) scale(0.100000,-0.100000)"
fill="#000000" stroke="none">
<path d="M2395 4833 c-201 -39 -356 -128 -466 -269 -40 -50 -139 -224 -354
-619 -28 -52 -161 -296 -245 -450 -15 -27 -80 -147 -145 -265 -65 -118 -133
-244 -153 -280 -19 -36 -42 -78 -52 -95 -10 -16 -37 -66 -60 -110 -35 -65
-193 -355 -485 -890 -18 -33 -44 -80 -58 -105 -72 -130 -128 -232 -162 -295
-21 -38 -50 -92 -66 -120 -125 -225 -150 -478 -67 -690 48 -122 162 -255 285
-332 131 -81 256 -114 423 -109 124 3 219 28 329 87 139 75 206 137 358 333
64 83 142 183 172 222 200 253 364 461 482 609 74 93 223 280 330 415 326 409
418 526 593 750 93 118 172 219 177 224 4 5 59 -70 122 -166 126 -191 165
-241 208 -264 36 -18 54 -18 74 2 9 9 18 15 19 13 2 -2 39 -67 81 -144 43 -77
83 -149 90 -160 16 -25 346 -640 405 -755 152 -295 172 -339 177 -397 7 -77
-10 -136 -52 -182 -70 -77 -166 -75 -255 5 -34 31 -130 163 -130 179 0 8 -122
208 -173 285 -129 192 -285 361 -410 445 -109 73 -260 125 -362 125 -275 0
-568 -206 -925 -649 -19 -24 -40 -49 -47 -56 -14 -14 -353 -465 -437 -580
l-58 -80 88 87 c49 47 125 121 169 163 44 42 114 110 155 149 106 103 300 267
394 335 263 188 425 231 574 151 72 -38 198 -152 281 -254 67 -82 108 -144
256 -385 127 -208 175 -272 272 -368 83 -81 193 -143 301 -167 88 -20 247 -14
342 14 213 61 404 220 499 414 53 108 73 191 76 308 5 185 -27 280 -210 613
-12 22 -61 110 -107 195 -47 85 -191 349 -321 585 -129 237 -248 455 -265 485
-16 30 -85 156 -152 280 l-122 225 6 70 c4 38 8 84 11 100 55 389 37 536 -73
582 -54 22 -179 0 -276 -49 -21 -11 -42 -16 -46 -11 -7 7 -93 164 -235 428
-147 272 -367 414 -650 420 -60 1 -119 1 -130 -2z m195 -587 c61 -25 96 -76
255 -371 20 -38 46 -84 56 -101 l18 -30 -92 -44 c-410 -194 -469 -229 -483
-286 -16 -63 56 -108 311 -194 220 -74 216 -72 189 -102 -18 -20 -298 -349
-342 -403 -22 -26 -221 -263 -248 -295 -170 -199 -406 -479 -688 -815 -116
-137 -213 -252 -216 -255 -3 -3 -39 -45 -80 -95 -126 -151 -246 -288 -281
-321 -99 -93 -237 -114 -301 -46 -44 47 -56 130 -31 217 8 31 192 394 298 590
18 33 56 105 85 160 29 55 56 105 60 110 4 6 29 51 55 100 26 50 82 151 123
225 41 74 87 158 103 187 24 44 76 137 236 423 11 19 93 166 183 325 90 160
174 310 188 335 14 25 53 95 87 155 34 61 75 135 92 165 17 30 39 71 50 90 11
19 39 71 63 115 70 129 92 151 170 171 53 13 92 11 140 -10z"/>
</g>
</svg>
