<svg id="Full_Logo" data-name="Full Logo" xmlns="http://www.w3.org/2000/svg" viewBox="0 0 3604 1024"><defs><style>.cls-1{fill:#3698e4;}</style></defs><title>resova_logo_main_login</title><g id="_3698e4" data-name="#3698e4"><g id="Mark"><path class="cls-1" d="M105.41,186.47a81.31,81.31,0,0,1,81.07-81.06h651a81.36,81.36,0,0,1,81.13,81.12V387.39c0,335.74-196.1,531.2-531.89,531.2H186.54a81.36,81.36,0,0,1-81.13-81.12ZM200.91,0C90.41,0,0,90.37,0,200.83V823.17C0,933.63,90.41,1024,200.91,1024H823.09c110.5,0,200.91-90.37,200.91-200.83V200.83C1024,90.37,933.59,0,823.09,0Z"/><path class="cls-1" d="M353.88,225.88h0c-70.69,0-128,57.95-128,129.44V668.68h0v8.18h.27c4.21,67.42,60,121.26,127.73,121.26h0c67.69,0,123.53-53.84,127.74-121.26h.26v-8.18h0V355.32C481.88,283.83,424.57,225.88,353.88,225.88Z"/><rect class="cls-1" x="542.12" y="225.88" width="256" height="331.29" rx="128"/></g><g id="Resova"><path class="cls-1" d="M1475,688.57l-75.52-127.92h-67.76V671a33.88,33.88,0,0,1-33.88,33.88h0A33.88,33.88,0,0,1,1264,671V351.7a33.14,33.14,0,0,1,33.14-33.14H1433.7c76.45,0,126.83,49.23,126.83,121,0,68.35-45.17,106-92.09,113.52l63.24,101c13.81,22.07-2.06,50.72-28.1,50.72h0A33.14,33.14,0,0,1,1475,688.57ZM1491,439c0-37.07-27.8-60.82-66-60.82h-93.25V501H1425C1463.23,501,1491,476.67,1491,439Z"/><path class="cls-1" d="M1663.05,675V348.39a29.82,29.82,0,0,1,29.83-29.83h205a29.83,29.83,0,0,1,29.83,29.83h0a29.83,29.83,0,0,1-29.83,29.82H1730.81v99.62h163a29.82,29.82,0,0,1,29.82,29.83h0a29.82,29.82,0,0,1-29.82,29.82h-163V645.21H1897.9A29.83,29.83,0,0,1,1927.73,675h0a29.83,29.83,0,0,1-29.83,29.82h-205A29.82,29.82,0,0,1,1663.05,675Z"/><path class="cls-1" d="M2024.37,626.58h0a32.41,32.41,0,0,1,45.4-7,164.51,164.51,0,0,0,97.73,32c55.6,0,77-27.22,77-53.28,0-81.09-224.71-30.7-224.71-172.6,0-64.28,55.6-113.51,140.73-113.51,46.29,0,86.3,11.85,118.41,33.4a31.64,31.64,0,0,1,7.35,45.37h0a31.68,31.68,0,0,1-42.65,7.39c-26.84-17.72-58.33-25.93-89.48-25.93-39.38,0-64.86,19.69-64.86,48.07,0,72.4,224.71,27.8,224.71,171.43,0,64.29-45.75,119.89-149.42,119.89-56.16,0-100.09-15.84-133.19-40.14A32.36,32.36,0,0,1,2024.37,626.58Z"/><path class="cls-1" d="M2394,512c0-115.25,81.66-199.81,197.49-199.81,115.26,0,197.5,84.56,197.5,199.81s-82.24,199.81-197.5,199.81C2475.62,711.81,2394,627.25,2394,512Zm325.49,0c0-79.92-50.39-139.58-128-139.58-78.18,0-128,59.66-128,139.58,0,79.35,49.81,139.58,128,139.58C2669.06,651.58,2719.45,591.35,2719.45,512Z"/><path class="cls-1" d="M2973.32,665.51,2856.16,367.25a35.65,35.65,0,0,1,33.19-48.69h0a35.64,35.64,0,0,1,33.38,23.14l108.32,289,108.32-289a35.65,35.65,0,0,1,33.39-23.14h0A35.66,35.66,0,0,1,3206,367.25L3088.79,665.51a62,62,0,0,1-57.74,39.35h0A62,62,0,0,1,2973.32,665.51Z"/><path class="cls-1" d="M3534.87,681.83l-19.63-51.68H3338l-19.64,51.68a35.69,35.69,0,0,1-33.38,23h0a35.71,35.71,0,0,1-33.24-48.76l117.13-298.19a62,62,0,0,1,57.74-39.35h0a62,62,0,0,1,57.73,39.35L3601.49,656.1a35.7,35.7,0,0,1-33.23,48.76h0A35.7,35.7,0,0,1,3534.87,681.83ZM3426.63,386.32l-69.5,184.18h139Z"/></g></g></svg>